<svg viewBox="0 0 96 96" xmlns="http://www.w3.org/2000/svg" xmlns:xlink="http://www.w3.org/1999/xlink" id="Icons_Candy" overflow="hidden"><g><path d="M29.6 69.2 26.8 66.4C24.6 64.2 23.2 61.5 22.5 58.6L4.8 65.9C3.5 66.4 3.1 68.2 4.2 69.2L12.7 72 15.5 80.5 24 83.3 26.8 91.8C27.8 92.8 29.5 92.5 30.1 91.2L37.5 73.5C34.6 72.8 31.8 71.4 29.6 69.2Z" fill="#ED7D31"/><path d="M91.8 26.8 83.4 24 80.6 15.5 72 12.6 69.2 4.1C68.2 3.1 66.5 3.4 65.9 4.7L58.5 22.4C61.4 23 64.1 24.4 66.3 26.7L69.1 29.5C71.3 31.7 72.7 34.4 73.4 37.3L91.1 29.9C92.5 29.5 92.9 27.8 91.8 26.8Z" fill="#ED7D31"/><path d="M66.4 32.4 63.6 29.6C61.7 27.7 59.4 26.6 56.9 26.2 53.3 25.7 49.4 26.8 46.6 29.6L29.6 46.6C26.8 49.4 25.7 53.3 26.2 56.9 26.6 59.3 27.7 61.7 29.6 63.5L32.4 66.3C34.3 68.2 36.6 69.3 39 69.7 42.7 70.3 46.5 69.2 49.3 66.3L66.3 49.3C69.1 46.5 70.2 42.7 69.7 39 69.4 36.7 68.3 34.3 66.4 32.4Z" fill="#ED7D31"/></g></svg>